<?xml version="1.0" encoding="UTF-8"?>
<svg width="1000px" height="1000px" viewBox="0 0 1000 1000" version="1.1" xmlns="http://www.w3.org/2000/svg" xmlns:xlink="http://www.w3.org/1999/xlink">
    <!-- Generator: Sketch 55 (78076) - https://sketchapp.com -->
    <title>编组 10</title>
    <desc>Created with Sketch.</desc>
    <defs>
        <linearGradient x1="-0.171875%" y1="50.103125%" x2="100.032812%" y2="50.103125%" id="linearGradient-1">
            <stop stop-color="#4164E0" offset="0%"></stop>
            <stop stop-color="#370072" offset="100%"></stop>
        </linearGradient>
        <linearGradient x1="-0.7796875%" y1="50.103125%" x2="99.425%" y2="50.103125%" id="linearGradient-2">
            <stop stop-color="#4164E0" offset="0%"></stop>
            <stop stop-color="#370072" offset="100%"></stop>
        </linearGradient>
        <linearGradient x1="1.07586207%" y1="49.7706897%" x2="100.534483%" y2="49.7706897%" id="linearGradient-3">
            <stop stop-color="#4164E0" offset="0%"></stop>
            <stop stop-color="#370072" offset="100%"></stop>
        </linearGradient>
    </defs>
    <g id="整理台" stroke="none" stroke-width="1" fill="none" fill-rule="evenodd">
        <g id="画板" transform="translate(-3584.000000, -1343.000000)">
            <g id="编组-10" transform="translate(3584.000000, 1343.000000)">
                <rect id="矩形备份-9" x="0" y="0" width="1000" height="1000"></rect>
                <g id="编组-172" transform="translate(33.000000, 160.000000)">
                    <g id="编组-23复制备份-4" transform="translate(765.871109, 378.630549)">
                        <path d="M11.3828036,69.729768 C31.6714708,73.1469942 61.9182568,86.4386891 67.1097761,134.763777 C61.1584004,184.982362 67.1097761,217.968397 67.1097761,217.968397 L43.3042732,217.968397 C43.3042732,217.968397 25.4551452,203.691489 36.3630845,176.120404 C40.3298352,165.290502 9.33818988,180.306941 16.5293314,152.981539 C23.7129743,125.678472 16.3268696,110.604956 1.26971412,83.9893047 C-2.73702895,76.9066876 3.31432787,68.3723078 11.3828036,69.729768" id="Fill-114" fill="#66BF65"></path>
                        <path d="M63.9235216,141.89589 C63.9235216,141.89589 76.1416063,125.249319 63.9235216,101.941634 C58.4913262,92.105363 59.9072306,81.0283694 75.2955475,75.5408442 C79.0455788,74.2056376 82.6711897,72.4701176 85.7493508,69.946403 C103.168209,55.6718755 99.1469411,40.1964079 126.497037,13.8876157 C146.882078,-5.72276549 178.706332,-3.50239394 170.930056,13.8876157 C163.15378,31.275139 130.570561,90.4692998 132.79271,110.450157 C135.014858,130.428528 144.64251,167.794423 114.278952,172.605642 C83.9178823,177.414375 71.3290247,213.671327 71.6997975,218.48006 L60.9623157,218.48006 L63.9235216,141.89589 Z" id="Fill-115" fill="#66BF65"></path>
                        <path d="M60.7939611,218.48006 L56.3617449,218.147633 C61.1176622,151.295066 31.5263945,106.355394 25.0025707,97.3352096 C24.3178182,96.3850637 24.5045689,95.0652787 25.4184022,94.3284814 C26.4069358,93.5346258 27.8685712,93.7231665 28.6081039,94.752698 C34.5866156,103.048489 57.8283603,138.491663 60.9682617,191.779222 C75.4949746,133.934435 117.770349,58.9671745 125.447047,45.6229575 C126.062079,44.5586948 127.426604,44.1989789 128.492328,44.8166978 C129.550581,45.4294552 129.924083,46.7591633 129.319011,47.8159837 C120.7982,62.7156616 65.2436073,161.771479 60.7939611,218.48006" id="Fill-116" fill="#56A856"></path>
                        <path d="M82.9105582,280.391272 L31.1463359,280.391272 C30.4062438,280.391272 29.7803942,279.851028 29.681053,279.123302 L23.0674117,231.406712 C22.9432352,230.523574 23.6361402,229.736644 24.5326946,229.736644 L90.219588,229.736644 C91.1260765,229.736644 91.8189815,230.538376 91.6823873,231.426447 L84.3708741,279.143037 C84.2615987,279.860895 83.6407162,280.391272 82.9105582,280.391272" id="Fill-117" fill="#E5EEEC"></path>
                        <path d="M99.4388977,232.294959 L15.3136965,232.294959 C14.4942871,232.294959 13.8317859,231.635404 13.8317859,230.819639 L13.8317859,217.906249 C13.8317859,217.090484 14.4942871,216.433409 15.3136965,216.433409 L99.4388977,216.433409 C100.255816,216.433409 100.920808,217.090484 100.920808,217.906249 L100.920808,230.819639 C100.920808,231.635404 100.255816,232.294959 99.4388977,232.294959" id="Fill-118" fill="#CAD8D5"></path>
                    </g>
                    <g id="编组" transform="translate(0.000000, 76.749436)" fill-rule="nonzero">
                        <rect id="矩形" fill="#E4EDFF" x="198.767886" y="274.251317" width="15.8809394" height="328.487585"></rect>
                        <rect id="矩形" fill="#E4EDFF" x="27.1512835" y="274.251317" width="15.8809394" height="328.487585"></rect>
                        <rect id="矩形" fill="#E4EDFF" x="0" y="267.088036" width="439.031131" height="13.3032355"></rect>
                        <g transform="translate(301.225560, 11.256584)">
                            <rect id="矩形" fill="#236CE4" x="130.17919" y="153.966162" width="40.8357827" height="81.9644157"></rect>
                            <path d="M87.2670121,256.335221 L213.927152,256.335221 L213.927152,253.914332 C213.927152,240.080675 202.853041,229.01375 189.010403,229.01375 L112.529827,229.01375 C98.6871886,229.01375 87.613078,240.080675 87.613078,253.914332 L87.613078,256.335221 L87.2670121,256.335221 Z" id="路径" fill="#236CE4"></path>
                            <path d="M9.05610628,201.000595 L289.36953,201.000595 C294.214453,201.000595 298.021179,197.196339 298.021179,192.354559 L298.021179,8.71276744 C298.021179,3.87098761 294.214453,0.0667320344 289.36953,0.0667320344 L9.05610628,0.0667320344 C4.21118291,0.0667320344 0.404457403,3.87098761 0.404457403,8.71276744 L0.404457403,192.354559 C0.404457403,197.196339 4.55724886,201.000595 9.05610628,201.000595 Z" id="路径" fill="#5A94F3"></path>
                            <path d="M22.2066126,187.51278 L276.565089,187.51278 C281.410013,187.51278 285.216738,183.708524 285.216738,178.866744 L285.216738,22.2005827 C285.216738,17.3588028 281.410013,13.5545473 276.565089,13.5545473 L22.2066126,13.5545473 C17.3616892,13.5545473 13.5549637,17.3588028 13.5549637,22.2005827 L13.5549637,178.866744 C13.5549637,183.708524 17.3616892,187.51278 22.2066126,187.51278 Z" id="路径" fill="#FFFFFF"></path>
                            <g transform="translate(60.733302, 24.607274)" id="路径">
                                <g transform="translate(0.444612, 0.226576)" fill="#D7E8EC">
                                    <path d="M134.061676,9.12534089 L4.63300874,9.12534089 C2.21054706,9.12534089 0.134151326,7.05029239 0.134151326,4.62940248 L0.134151326,4.62940248 C0.134151326,2.20851257 2.21054706,0.133464069 4.63300874,0.133464069 L134.061676,0.133464069 C136.484138,0.133464069 138.560533,2.20851257 138.560533,4.62940248 L138.560533,4.62940248 C138.214467,7.39613381 136.484138,9.12534089 134.061676,9.12534089 Z"></path>
                                    <path d="M94.2640911,27.8007774 L4.63300874,27.8007774 C2.21054706,27.8007774 0.134151326,25.7257289 0.134151326,23.304839 L0.134151326,23.304839 C0.134151326,20.883949 2.21054706,18.8089005 4.63300874,18.8089005 L94.2640911,18.8089005 C96.6865527,18.8089005 98.7629485,20.883949 98.7629485,23.304839 L98.7629485,23.304839 C98.7629485,25.7257289 96.6865527,27.8007774 94.2640911,27.8007774 Z"></path>
                                    <path d="M120.219038,46.1303724 L24.0127022,46.1303724 C21.5902405,46.1303724 19.8599108,44.4011653 19.8599108,41.9802754 L19.8599108,41.2885926 C19.8599108,38.8677027 21.5902405,37.1384956 24.0127022,37.1384956 L120.219038,37.1384956 C122.641499,37.1384956 124.371829,38.8677027 124.371829,41.2885926 L124.371829,41.9802754 C124.371829,44.4011653 122.641499,46.1303724 120.219038,46.1303724 Z"></path>
                                    <path d="M90.4573656,64.4599675 L24.3587682,64.4599675 C21.9363065,64.4599675 19.8599108,62.384919 19.8599108,59.9640291 L19.8599108,59.9640291 C19.8599108,57.5431392 21.9363065,55.4680907 24.3587682,55.4680907 L90.4573656,55.4680907 C92.8798272,55.4680907 94.956223,57.5431392 94.956223,59.9640291 L94.956223,59.9640291 C94.956223,62.7307604 92.8798272,64.4599675 90.4573656,64.4599675 Z"></path>
                                </g>
                                <g transform="translate(54.565052, 83.228516)" fill="#B7D3D8">
                                    <path d="M86.8625547,9.47118231 L20.7639573,9.47118231 C18.3414956,9.47118231 16.2650999,7.39613381 16.2650999,4.9752439 L16.2650999,4.9752439 C16.2650999,2.55435398 18.3414956,0.479305485 20.7639573,0.479305485 L86.8625547,0.479305485 C89.2850164,0.479305485 91.3614121,2.55435398 91.3614121,4.9752439 L91.3614121,4.9752439 C91.3614121,7.74197523 89.2850164,9.47118231 86.8625547,9.47118231 Z"></path>
                                    <path d="M102.435523,27.8007774 L20.7639573,27.8007774 C18.3414956,27.8007774 16.2650999,25.7257289 16.2650999,23.304839 L16.2650999,23.304839 C16.2650999,20.883949 18.3414956,18.8089005 20.7639573,18.8089005 L102.435523,18.8089005 C104.857984,18.8089005 106.93438,20.883949 106.93438,23.304839 L106.93438,23.304839 C106.93438,25.7257289 104.857984,27.8007774 102.435523,27.8007774 Z"></path>
                                    <path d="M80.9794334,44.7470068 L38.413321,44.7470068 C35.9908593,44.7470068 33.9144636,42.6719583 33.9144636,40.2510684 L33.9144636,40.2510684 C33.9144636,37.8301784 35.9908593,35.7551299 38.413321,35.7551299 L80.9794334,35.7551299 C83.4018951,35.7551299 85.4782909,37.8301784 85.4782909,40.2510684 L85.4782909,40.2510684 C85.4782909,42.6719583 83.4018951,44.7470068 80.9794334,44.7470068 Z"></path>
                                    <path d="M80.9794334,60.6557119 L38.413321,60.6557119 C35.9908593,60.6557119 33.9144636,58.5806634 33.9144636,56.1597735 L33.9144636,56.1597735 C33.9144636,53.7388836 35.9908593,51.6638351 38.413321,51.6638351 L80.9794334,51.6638351 C83.4018951,51.6638351 85.4782909,53.7388836 85.4782909,56.1597735 L85.4782909,56.1597735 C85.4782909,58.5806634 83.4018951,60.6557119 80.9794334,60.6557119 Z"></path>
                                    <path d="M3.8067255,9.47118231 L3.8067255,9.47118231 C1.73032977,9.47118231 0,7.74197523 0,5.66692673 L0,4.28356106 C0,2.20851257 1.73032977,0.479305485 3.8067255,0.479305485 L3.8067255,0.479305485 C5.88312123,0.479305485 7.61345101,2.20851257 7.61345101,4.28356106 L7.61345101,5.66692673 C7.61345101,7.74197523 5.88312123,9.47118231 3.8067255,9.47118231 Z"></path>
                                </g>
                            </g>
                        </g>
                        <g transform="translate(290.979792, 256.854778)" id="矩形">
                            <rect fill="#42E4FF" x="0.404457403" y="2.48927376" width="147.424097" height="8.65177647"></rect>
                            <g transform="translate(149.904950, 0.000000)" fill="#00D1F0">
                                <rect x="37.3751231" y="0.0667763452" width="8.65164887" height="3.46071059"></rect>
                                <rect x="24.9167488" y="0.0667763452" width="8.65164887" height="3.46071059"></rect>
                                <rect x="12.4583744" y="0.0667763452" width="8.65164887" height="3.46071059"></rect>
                                <rect x="0" y="0.0667763452" width="8.65164887" height="3.46071059"></rect>
                            </g>
                            <g transform="translate(10.381979, 0.000000)" fill="#42E4FF">
                                <rect x="124.296069" y="0.0667763452" width="8.65164887" height="3.46071059"></rect>
                                <rect x="111.837695" y="0.0667763452" width="8.65164887" height="3.46071059"></rect>
                                <rect x="99.7253865" y="0.0667763452" width="8.65164887" height="3.46071059"></rect>
                                <rect x="87.2670121" y="0.0667763452" width="8.65164887" height="3.46071059"></rect>
                                <rect x="74.8086377" y="0.0667763452" width="8.65164887" height="3.46071059"></rect>
                                <rect x="62.3502633" y="0.0667763452" width="8.65164887" height="3.46071059"></rect>
                                <rect x="50.2379549" y="0.0667763452" width="8.65164887" height="3.46071059"></rect>
                                <rect x="37.7795805" y="0.0667763452" width="8.65164887" height="3.46071059"></rect>
                                <rect x="25.3212062" y="0.0667763452" width="8.65164887" height="3.46071059"></rect>
                                <rect x="12.8628318" y="0.0667763452" width="8.65164887" height="3.46071059"></rect>
                                <rect x="0.404457403" y="0.0667763452" width="8.65164887" height="3.46071059"></rect>
                            </g>
                            <rect fill="#00D1F0" x="147.828554" y="2.48927376" width="50.5256294" height="8.65177647"></rect>
                        </g>
                        <g transform="translate(81.966139, 0.000000)" id="路径">
                            <g transform="translate(147.817753, 528.421923)">
                                <path d="M0.235418289,62.7267272 C-0.135344736,66.9947078 55.849872,68.5189866 56.0352536,65.7752848 C56.4060166,58.1538909 53.9960569,48.093651 51.0299527,46.2645165 C49.3615191,45.3499492 47.136941,45.0450935 44.7269813,44.7402377 C39.5362989,44.4353819 33.047946,45.3499492 27.1157376,42.6062474 C24.3350149,41.3868244 22.1104368,39.8625456 20.6273847,38.3382668 C20.6273847,38.3382668 20.6273847,38.3382668 20.6273847,38.3382668 C17.2905174,35.2897093 16.1782284,32.2411518 16.1782284,32.2411518 L4.68457459,29.8023057 C4.68457459,30.1071615 1.16232585,50.8373528 0.235418289,62.7267272 Z" fill="#3E85FF"></path>
                                <path d="M28.4749833,0.123516628 L25.7062827,34.3279216 C25.3601951,40.5469043 20.1688815,45.0383919 14.2853927,45.3838909 L14.2853927,45.3838909 C7.36364111,45.72939 1.82623987,40.5469043 1.48015229,33.6369235 L0.441889561,0.469015669 L28.4749833,0.123516628 Z" fill="#FACABE"></path>
                            </g>
                            <g transform="translate(209.314554, 529.515271)">
                                <path d="M0.213843651,66.8371674 C-0.282774713,71.5144063 74.7065982,73.1848488 74.9549074,70.1780524 C75.4515258,61.8258399 72.2235064,50.8009195 68.2505595,48.7963885 C66.0157769,47.794123 63.0360667,47.4600345 59.8080473,47.125946 C52.8553902,46.7918575 44.1645688,47.794123 36.218675,44.7873265 C32.4940373,43.4509725 29.5143271,41.78053 27.5278537,40.1100875 C27.5278537,40.1100875 27.5278537,40.1100875 27.5278537,40.1100875 C23.0582884,36.7692025 21.5684333,33.4283175 21.5684333,33.4283175 L6.17326402,30.7556096 C6.17326402,31.0896981 1.45538956,53.8077159 0.213843651,66.8371674 Z" fill="#3E85FF"></path>
                                <path d="M30.6582965,0.412165011 L27.8895959,34.61657 C27.5435083,40.8355527 22.3521946,45.3270403 16.4687058,45.6725393 L16.4687058,45.6725393 C9.54695428,46.0180383 4.00955305,40.8355527 3.66346547,33.9255719 L2.62520274,0.757664052 L30.6582965,0.412165011 Z" fill="#FACABE"></path>
                            </g>
                            <polygon fill="#4CDBC4" points="224.052822 353.722925 189.444064 540.292407 140.299628 537.528415 155.527482 358.559912"></polygon>
                            <path d="M123.341337,85.961169 C123.341337,85.961169 116.419586,102.199624 118.150024,109.109605 C118.150024,109.109605 91.1551925,107.727609 85.2717037,102.890622 C79.3882149,98.0536354 85.2717037,80.4331843 85.2717037,80.4331843 L123.341337,85.961169 Z" fill="#FACABE"></path>
                            <path d="M15.7081007,314.336035 C15.7081007,314.336035 -8.51802972,395.18281 15.7081007,405.89328 C39.9342311,416.603751 214.016282,393.800814 219.553684,398.6378 C225.091085,403.474787 200.172779,538.910411 201.211042,544.783895 C202.249305,550.657378 246.548515,549.620881 246.548515,549.620881 C246.548515,549.620881 292.578162,364.778895 281.50336,342.666956 C270.08247,320.555017 107.075221,314.681534 107.075221,314.681534 L15.7081007,314.681534 L15.7081007,314.336035 Z" fill="#4CDBC4"></path>
                            <path d="M105.344783,0.968405046 C119.034613,0.968405046 135.742572,17.9914112 143.953031,34.7930775 C149.441902,46.0253575 149.075915,58.4278077 149.075915,60.8878856 C149.075915,67.0278405 151.773167,81.442339 143.953031,90.5643341 C135.515916,100.40602 113.786499,98.0536354 105.344783,98.0536354 C82.5030031,98.0536354 64.1603615,76.2871958 64.1603615,49.6837697 C64.1603615,23.0803436 82.5030031,0.968405046 105.344783,0.968405046 Z" fill="#FACABE"></path>
                            <path d="M228.205873,237.635248 C228.205873,237.635248 211.593669,229.343271 189.790152,233.834758 C167.986635,238.326246 112.266535,230.725267 112.266535,230.725267 C112.266535,230.725267 115.727411,269.421159 117.111761,270.112157 C118.496111,270.457657 199.480604,253.528204 211.247582,250.418712 C223.014559,247.309221 228.205873,237.635248 228.205873,237.635248 Z" fill="#EEC1B8"></path>
                            <path d="M157.784817,34.7930775 C154.198798,45.5379985 129.096668,45.0263356 123.461496,45.0263356 C117.826324,45.0263356 121.610899,51.0657659 115.035235,52.102263 C108.459571,53.1387601 111.57436,68.3407179 120.918724,66.6132227 C120.918724,66.6132227 117.457848,82.8516776 107.767396,87.3431651 C107.767396,87.3431651 114.34306,87.6886642 116.419586,86.6521671 C116.419586,86.6521671 103.960433,93.5621479 93.5778056,93.5621479 C83.1951782,93.5621479 73.5047261,88.7251613 69.6977627,83.8881747 C69.6977627,83.8881747 70.0438503,85.2701709 70.3899379,88.7251613 C70.3899379,88.7251613 52.0472963,66.2677237 55.1620845,38.2823014 C57.9307851,13.4063705 71.6167899,6.89680949 92.0359569,2.40532197 C92.0359569,2.40532197 95.1507451,-1.04966843 118.338613,1.02332581 C133.566466,2.75082101 161.370836,24.0481565 157.784817,34.7930775 Z" fill="#320079"></path>
                            <path d="M148.951818,219.669298 C148.951818,219.669298 175.254474,274.258146 185.637101,274.603645 C193.943203,274.949144 207.440618,270.803156 216.784983,267.348165 L253.124179,257.328693 C254.508529,256.983194 255.892879,256.637695 256.931142,256.637695 L256.931142,256.292196 L258.66158,256.292196 C262.122456,255.601198 264.545069,255.255699 265.583331,255.601198 C266.621594,255.601198 268.005945,256.637695 269.390295,257.674192 L269.390295,256.292196 L278.042484,256.292196 L278.042484,258.710689 L281.849448,258.710689 L281.849448,256.292196 L290.501637,256.292196 L290.501637,258.710689 L294.3086,258.710689 L294.3086,256.292196 L302.96079,256.292196 L302.96079,258.710689 L306.767753,258.710689 L306.767753,256.292196 L307.806016,256.292196 C302.268615,235.907752 283.925973,231.070766 277.350309,230.034269 C270.428558,228.997772 208.824969,234.871255 202.249305,234.525756 C195.327553,234.180257 176.638824,186.50139 176.638824,186.50139 L148.951818,219.669298 Z" fill="#FACABE"></path>
                            <path d="M184.944926,187.192388 C184.944926,187.192388 180.0997,217.596303 150.682256,227.615776 L139.261366,217.596303 C139.261366,217.596303 119.188286,285.314115 145.144855,318.136524 C145.144855,318.136524 75.235164,335.065977 0.134159708,324.010008 C0.134159708,324.010008 23.3220274,152.642484 34.0507423,135.022033 C52.0472963,104.963616 87.3482292,94.598645 123.341337,105.654614 C159.334445,116.365085 184.944926,187.192388 184.944926,187.192388 Z" fill="#FFC941"></path>
                        </g>
                        <g transform="translate(34.835609, 158.615500)">
                            <rect id="矩形" fill="#320079" x="114.98096" y="279.010645" width="17.999918" height="39.3966904"></rect>
                            <path d="M123.634766,427.266612 L120.173244,427.266612 C117.404026,427.266612 114.98096,424.847517 114.98096,422.082837 L114.98096,395.127207 L129.173203,395.127207 L129.173203,422.082837 C128.82705,424.847517 126.403985,427.266612 123.634766,427.266612 Z" id="路径" fill="#320079"></path>
                            <path d="M205.672854,435.560652 C208.09592,428.303367 204.288245,420.700497 197.019048,418.281402 L132.634725,397.200717 L132.634725,368.517161 L111.173285,368.517161 L111.173285,397.546302 L47.8274193,418.281402 C40.5582216,420.700497 36.7505466,428.303367 39.1736125,435.560652 L122.59631,408.259437 L122.59631,408.259437 L205.672854,435.560652 Z" id="路径" fill="#320079"></path>
                            <ellipse id="椭圆形" fill="url(#linearGradient-1)" cx="199.788266" cy="433.487142" rx="11.0768726" ry="11.0587201"></ellipse>
                            <ellipse id="椭圆形" fill="url(#linearGradient-2)" cx="44.7120488" cy="433.487142" rx="11.0768726" ry="11.0587201"></ellipse>
                            <ellipse id="椭圆形" fill="url(#linearGradient-3)" cx="121.557853" cy="426.921027" rx="10.0384158" ry="10.0219651"></ellipse>
                            <rect id="矩形" fill="#5A94F3" x="111.173285" y="315.988241" width="21.807593" height="57.3671106"></rect>
                            <rect id="矩形" fill="#320079" x="105.288696" y="355.384931" width="33.5767702" height="43.8892955"></rect>
                            <path d="M131.250116,223.37146 L63.0581191,223.37146 C27.0582831,223.37146 -1.32620307,193.305564 0.404558282,157.710309 L5.25069006,59.564168 C6.98145141,26.3880076 34.3274807,0.123547361 67.9042509,0.123547361 L126.403985,0.123547361 C159.980755,0.123547361 187.326784,26.3880076 189.057545,59.564168 L193.903677,157.710309 C195.634439,193.651149 167.249952,223.37146 131.250116,223.37146 Z" id="路径" fill="#5A94F3"></path>
                            <ellipse id="椭圆形" fill="#ACBADC" cx="97.3271939" cy="169.114614" rx="26.3075725" ry="26.2644603"></ellipse>
                            <path d="M121.904005,223.37146 L58.5581396,223.37146 C25.3275217,223.37146 -1.32620307,195.724659 0.404558282,162.548499 L4.90453779,71.3140581 C6.28914687,40.5569928 31.9044149,16.0204575 63.0581191,16.0204575 L117.404026,16.0204575 C148.55773,16.0204575 173.826846,40.2114078 175.557607,71.3140581 L180.057586,162.548499 C181.788348,195.724659 155.134623,223.37146 121.904005,223.37146 Z" id="路径" fill="#236CE4"></path>
                            <ellipse id="椭圆形" fill="#320079" cx="90.4041485" cy="172.916049" rx="24.5768112" ry="24.5365353"></ellipse>
                            <path d="M212.249748,282.466495 L29.8275012,282.466495 C18.7506286,282.466495 9.75066957,273.481285 9.75066957,262.422565 L9.75066957,262.422565 C9.75066957,251.363845 18.7506286,242.378635 29.8275012,242.378635 L212.249748,242.378635 C223.32662,242.378635 232.326579,251.363845 232.326579,262.422565 L232.326579,262.422565 C232.326579,273.481285 223.32662,282.466495 212.249748,282.466495 Z" id="路径" fill="#5A94F3"></path>
                            <rect id="矩形" fill="#320079" x="76.9042099" y="169.114614" width="26.3075725" height="140.998682"></rect>
                            <rect id="矩形" fill="#320079" x="76.9042099" y="295.598726" width="56.0766677" height="20.3895152"></rect>
                        </g>
                        <rect id="矩形" fill="#DAE5F5" x="452.350628" y="274.251317" width="19.4669579" height="328.487585"></rect>
                        <rect id="矩形" fill="#DAE5F5" x="621.405789" y="274.251317" width="19.4669579" height="328.487585"></rect>
                        <rect id="矩形" fill="#DAE5F5" x="439.031131" y="267.088036" width="220.796286" height="13.3032355"></rect>
                        <polygon id="路径" fill="#E4EDFF" points="296.614965 280.902935 439.031131 280.902935 439.031131 267.599699 296.614965 270.328568"></polygon>
                    </g>
                    <g id="编组" transform="translate(616.795194, 130.474041)" fill-rule="nonzero">
                        <path d="M84.9930133,30.0991943 L78.790107,17.6352108 L70.6075499,20.9501 C67.9680153,17.7678063 64.8005738,15.115895 61.3691788,12.9943658 L63.3488298,4.3756538 L50.1511569,0 L46.719762,8.08832975 C42.7604601,7.69054305 38.6691815,7.95573418 34.5779029,9.01649874 L29.9587174,1.59114684 L17.5529049,7.82313862 L20.8523231,16.0440639 C17.6848816,18.6959753 15.0453471,21.878269 12.9337194,25.3257538 L4.35523205,23.3368203 L0,36.5963773 L8.05058045,40.0438621 C7.65465026,44.0217292 7.91860372,48.1321918 8.97441755,52.2426545 L1.58372074,56.8834994 L7.78662699,69.347483 L15.9691842,66.0325937 C18.6087187,69.2148874 21.7761602,71.8667988 25.2075552,73.9883279 L23.2279043,82.60704 L36.4255771,86.9826938 L39.8569721,78.894364 C43.8162739,79.2921507 47.9075525,79.0269596 51.9988311,77.966195 L56.6180166,85.3915469 L69.0238291,79.1595551 L65.7244109,70.9386298 C68.8918524,68.2867184 71.531387,65.1044247 73.6430146,61.6569399 L82.221502,63.6458735 L86.576734,50.3863165 L78.5261536,46.9388317 C78.9220838,42.9609646 78.6581303,38.8505019 77.6023165,34.7400393 L84.9930133,30.0991943 Z M54.7703424,65.8999982 C42.4965066,72.1319899 27.4511596,67.2259539 21.2482533,54.8945659 C15.0453471,42.5631779 19.928486,27.4472829 32.2023218,21.2152912 C44.4761576,14.9832994 59.5215046,19.8893355 65.7244109,32.2207234 C71.9273171,44.4195159 67.0441782,59.5354108 54.7703424,65.8999982 Z" id="形状" fill="#FFC941"></path>
                        <ellipse id="椭圆形" fill="#FFFFFF" cx="43.5445112" cy="43.4913469" rx="25.10213" ry="25.0714823"></ellipse>
                        <g transform="translate(26.638995, 32.746426)" fill="#0D195E" id="路径">
                            <polygon points="15.5213046 19.1778418 1.34230933 19.440552 0.0171695847 16.5507402 9.55817574 6.1736888 11.0158295 9.45756582 4.12510279 16.28803 13.9311369 15.8939648"></polygon>
                            <polygon points="17.6415282 20.8854578 13.7986229 1.18219573 16.3163884 0 20.0267797 19.7032621"></polygon>
                            <polygon points="24.5322548 15.1058343 23.0746011 11.8219573 29.9653278 4.86013799 20.1592937 5.38555831 18.70164 2.10168129 32.8806352 1.83897113 34.205775 4.59742783"></polygon>
                        </g>
                    </g>
                    <g id="编组备份-2" transform="translate(427.248498, 0.000000)" fill-rule="nonzero">
                        <path d="M84.9930133,30.0991943 L78.790107,17.6352108 L70.6075499,20.9501 C67.9680153,17.7678063 64.8005738,15.115895 61.3691788,12.9943658 L63.3488298,4.3756538 L50.1511569,0 L46.719762,8.08832975 C42.7604601,7.69054305 38.6691815,7.95573418 34.5779029,9.01649874 L29.9587174,1.59114684 L17.5529049,7.82313862 L20.8523231,16.0440639 C17.6848816,18.6959753 15.0453471,21.878269 12.9337194,25.3257538 L4.35523205,23.3368203 L0,36.5963773 L8.05058045,40.0438621 C7.65465026,44.0217292 7.91860372,48.1321918 8.97441755,52.2426545 L1.58372074,56.8834994 L7.78662699,69.347483 L15.9691842,66.0325937 C18.6087187,69.2148874 21.7761602,71.8667988 25.2075552,73.9883279 L23.2279043,82.60704 L36.4255771,86.9826938 L39.8569721,78.894364 C43.8162739,79.2921507 47.9075525,79.0269596 51.9988311,77.966195 L56.6180166,85.3915469 L69.0238291,79.1595551 L65.7244109,70.9386298 C68.8918524,68.2867184 71.531387,65.1044247 73.6430146,61.6569399 L82.221502,63.6458735 L86.576734,50.3863165 L78.5261536,46.9388317 C78.9220838,42.9609646 78.6581303,38.8505019 77.6023165,34.7400393 L84.9930133,30.0991943 Z M54.7703424,65.8999982 C42.4965066,72.1319899 27.4511596,67.2259539 21.2482533,54.8945659 C15.0453471,42.5631779 19.928486,27.4472829 32.2023218,21.2152912 C44.4761576,14.9832994 59.5215046,19.8893355 65.7244109,32.2207234 C71.9273171,44.4195159 67.0441782,59.5354108 54.7703424,65.8999982 Z" id="形状" fill="#5A94F3"></path>
                        <ellipse id="椭圆形" fill="#FFFFFF" cx="43.5445112" cy="43.4913469" rx="25.10213" ry="25.0714823"></ellipse>
                        <g id="编组" transform="translate(26.638995, 32.746426)" fill="#0D195E">
                            <polygon id="路径" points="15.5213046 19.1778418 1.34230933 19.440552 0.0171695847 16.5507402 9.55817574 6.1736888 11.0158295 9.45756582 4.12510279 16.28803 13.9311369 15.8939648"></polygon>
                            <polygon id="路径" points="17.6415282 20.8854578 13.7986229 1.18219573 16.3163884 0 20.0267797 19.7032621"></polygon>
                            <polygon id="路径" points="24.5322548 15.1058343 23.0746011 11.8219573 29.9653278 4.86013799 20.1592937 5.38555831 18.70164 2.10168129 32.8806352 1.83897113 34.205775 4.59742783"></polygon>
                        </g>
                    </g>
                </g>
            </g>
        </g>
    </g>
</svg>